<svg width="104" height="95" viewBox="0 0 104 95" fill="none" xmlns="http://www.w3.org/2000/svg">
<path d="M43.9384 28.5565L92 28.3876L12 45.7592L43.9384 28.5565Z" fill="#2492A2"/>
<path d="M44 28.4591H96C100.418 28.4591 104 32.0408 104 36.4591V85.4591H44V28.4591Z" fill="#33CBE0"/>
<path d="M12 59.5391H7.4V78.4591H3.76V59.5391H0.92V56.5391H3.76V54.9791C3.76 52.5258 4.38667 50.7391 5.64 49.6191C6.92 48.4724 8.96 47.8991 11.76 47.8991V50.9391C10.16 50.9391 9.02667 51.2591 8.36 51.8991C7.72 52.5124 7.4 53.5391 7.4 54.9791V56.5391H12V59.5391ZM29.6041 78.8191C27.5507 78.8191 25.6841 78.3524 24.0041 77.4191C22.3507 76.4858 21.0441 75.1658 20.0841 73.4591C19.1507 71.7258 18.6841 69.7258 18.6841 67.4591C18.6841 65.2191 19.1641 63.2458 20.1241 61.5391C21.1107 59.8058 22.4441 58.4858 24.1241 57.5791C25.8041 56.6458 27.6841 56.1791 29.7641 56.1791C31.8441 56.1791 33.7241 56.6458 35.4041 57.5791C37.0841 58.4858 38.4041 59.7924 39.3641 61.4991C40.3507 63.2058 40.8441 65.1924 40.8441 67.4591C40.8441 69.7258 40.3374 71.7258 39.3241 73.4591C38.3374 75.1658 36.9907 76.4858 35.2841 77.4191C33.5774 78.3524 31.6841 78.8191 29.6041 78.8191ZM29.6041 75.6191C30.9107 75.6191 32.1374 75.3124 33.2841 74.6991C34.4307 74.0858 35.3507 73.1658 36.0441 71.9391C36.7641 70.7124 37.1241 69.2191 37.1241 67.4591C37.1241 65.6991 36.7774 64.2058 36.0841 62.9791C35.3907 61.7524 34.4841 60.8458 33.3641 60.2591C32.2441 59.6458 31.0307 59.3391 29.7241 59.3391C28.3907 59.3391 27.1641 59.6458 26.0441 60.2591C24.9507 60.8458 24.0707 61.7524 23.4041 62.9791C22.7374 64.2058 22.4041 65.6991 22.4041 67.4591C22.4041 69.2458 22.7241 70.7524 23.3641 71.9791C24.0307 73.2058 24.9107 74.1258 26.0041 74.7391C27.0974 75.3258 28.2974 75.6191 29.6041 75.6191Z" fill="#201A1A"/>
<path d="M53.07 48.8591V78.4591H49.43V48.8591H53.07ZM64.9538 52.9791C64.2604 52.9791 63.6738 52.7391 63.1938 52.2591C62.7138 51.7791 62.4738 51.1924 62.4738 50.4991C62.4738 49.8058 62.7138 49.2191 63.1938 48.7391C63.6738 48.2591 64.2604 48.0191 64.9538 48.0191C65.6204 48.0191 66.1804 48.2591 66.6338 48.7391C67.1138 49.2191 67.3538 49.8058 67.3538 50.4991C67.3538 51.1924 67.1138 51.7791 66.6338 52.2591C66.1804 52.7391 65.6204 52.9791 64.9538 52.9791ZM66.7138 56.5391V78.4591H63.0738V56.5391H66.7138ZM86.2775 78.8191C84.2242 78.8191 82.3575 78.3524 80.6775 77.4191C79.0242 76.4858 77.7175 75.1658 76.7575 73.4591C75.8242 71.7258 75.3575 69.7258 75.3575 67.4591C75.3575 65.2191 75.8375 63.2458 76.7975 61.5391C77.7842 59.8058 79.1175 58.4858 80.7975 57.5791C82.4775 56.6458 84.3575 56.1791 86.4375 56.1791C88.5175 56.1791 90.3975 56.6458 92.0775 57.5791C93.7575 58.4858 95.0775 59.7924 96.0375 61.4991C97.0242 63.2058 97.5175 65.1924 97.5175 67.4591C97.5175 69.7258 97.0108 71.7258 95.9975 73.4591C95.0108 75.1658 93.6642 76.4858 91.9575 77.4191C90.2508 78.3524 88.3575 78.8191 86.2775 78.8191ZM86.2775 75.6191C87.5842 75.6191 88.8108 75.3124 89.9575 74.6991C91.1042 74.0858 92.0242 73.1658 92.7175 71.9391C93.4375 70.7124 93.7975 69.2191 93.7975 67.4591C93.7975 65.6991 93.4508 64.2058 92.7575 62.9791C92.0642 61.7524 91.1575 60.8458 90.0375 60.2591C88.9175 59.6458 87.7042 59.3391 86.3975 59.3391C85.0642 59.3391 83.8375 59.6458 82.7175 60.2591C81.6242 60.8458 80.7442 61.7524 80.0775 62.9791C79.4108 64.2058 79.0775 65.6991 79.0775 67.4591C79.0775 69.2458 79.3975 70.7524 80.0375 71.9791C80.7042 73.2058 81.5842 74.1258 82.6775 74.7391C83.7708 75.3258 84.9708 75.6191 86.2775 75.6191Z" fill="white"/>
</svg>
